Sucker.Punch.2011.Extended.Cut.BDRip.XVID.AC3.HQ.Hive-CM8


Thx Hive


CM8 Doing It Right The First Time


Source Bluray

Video: 720x304 @bitrate 1800 2pass

Audio: English DTS to AC3 5.1 @448

Sample: yes 2 included, quality+action

Subs: yes english in srt /subs


Notes:
you prolly noticed i didnt do a rip from the cut version, i waited for the extended,
18mins is a lot more footage.
just wait for the real deal.
enjoy

 
http://www.imdb.com/title/tt0978764/


General
Complete name : Sucker.Punch.2011.Extended.Cut.BDRip.XVID.AC3.HQ.Hive-CM8.avi
Format : AVI
Format/Info : Audio Video Interleave
Format profile : OpenDML
Format settings : rec
File size : 2.02 GiB
Duration : 2h 7mn
Overall bit rate : 2 262 Kbps
Writing application : AVI-Mux GUI 1.17.7, Aug 8 2006 20:59:17

Video
ID : 0
Format : MPEG-4 Visual
Format profile : Advanced Simple@L5
Format settings, BVOP : 2
Format settings, QPel : Yes
Format settings, GMC : No warppoints
Format settings, Matrix : Default (H.263)
Muxing mode : Packed bitstream
Codec ID : XVID
Codec ID/Hint : XviD
Duration : 2h 7mn
Bit rate : 1 809 Kbps
Width : 720 pixels
Height : 304 pixels
Display aspect ratio : 2.40:1
Frame rate : 23.976 fps
Color space : YUV
Chroma subsampling : 4:2:0
Bit depth : 8 bits
Scan type : Progressive
Compression mode : Lossy
Bits/(Pixel*Frame) : 0.345
Stream size : 1.61 GiB (80%)
Writing library : XviD 1.2.1 (UTC 2008-12-04)

Audio
ID : 1
Format : AC-3
Format/Info : Audio Coding 3
Mode extension : CM (complete main)
Codec ID : 2000
Duration : 2h 7mn
Bit rate mode : Constant
Bit rate : 448 Kbps
Channel(s) : 6 channels
Channel positions : Front: L C R, Side: L R, LFE
Sampling rate : 48.0 KHz
Bit depth : 16 bits
Compression mode : Lossy
Stream size : 409 MiB (20%)
Alignment : Aligned on interleaves
Interleave, duration : 64 ms (1.53 video frames)
Interleave, preload duration : 192 ms


CAST
Emily Browning ... Baby Doll
Abbie Cornish ... Sweet Pea
Jena Malone ... Rocket
Vanessa Hudgens ... Blondie
Jamie Chung ... Amber
Carla Gugino ... Dr. Vera Gorski


PLOT
A young girl (Baby Doll) is locked away in a mental asylum by her abusive stepfather
where she will undergo a lobotomy in five days' time. Faced with unimaginable odds,
she retreats to a fantastical world in her imagination where she and four other female
inmates at the asylum, plot to escape the facility. The lines between reality and fantasy
blur as Baby Doll and her four companions, as well as a mysterious guide, fight to retrieve
the five items they need that will allow them to break free from their captors before it's too late..